# AST/ASF file generated using VICON BodyLanguage
# -----------------------------------------------
:version 1.10
:name VICON
:units
  mass 1.0
  length 0.45
  angle deg
:documentation
   .ast/.asf automatically generated from VICON data using
   VICON BodyBuilder and BodyLanguage model FoxedUp or BRILLIANT.MOD
:root
   order TX TY TZ RX RY RZ
   axis XYZ
   position 0 0 0  
   orientation 0 -0 0 
:bonedata
  begin
     id 1 
     name lhipjoint
     direction 0.515797 -0.759363 0.396637 
     length 2.47888 
     axis 0 -0 0  XYZ
  end
  begin
     id 2 
     name lfemur
     direction 0.34202 -0.939693 0  
     length 6.81885  
     axis 0 -0 20  XYZ
    dof rx ry rz
    limits (-160.0 20.0)
           (-70.0 70.0)
           (-60.0 70.0)
  end
  begin
     id 3 
     name ltibia
     direction 0.342037 -0.939687 0   
     length 7.89258   
     axis 0 -0 20   XYZ
    dof rx
    limits (-10.0 170.0)
  end
  begin
     id 4 
     name lfoot
     direction 0.173497 -0.476678 0.861787   
     length 2.51543   
     axis -90 -1.13533e-015 20   XYZ
    dof rx rz
    limits (-45.0 90.0)
           (-70.0 20.0)
  end
  begin
     id 5 
     name ltoes
     direction 1.53564e-011 -4.21897e-011 1   
     length 1.21388   
     axis -90 -1.13533e-015 20   XYZ
    dof rx
    limits (-90.0 20.0)
  end
  begin
     id 6 
     name rhipjoint
     direction -0.489454 -0.772941 0.403729   
     length 2.43534  
     axis 0 -0 0  XYZ 
  end
  begin
     id 7 
     name rfemur
     direction -0.34202 -0.939693 0   
     length 7.10357   
     axis 0 -0 -20   XYZ
    dof rx ry rz
    limits (-160.0 20.0)
           (-70.0 70.0)
           (-70.0 60.0)
  end
  begin
     id 8 
     name rtibia
     direction -0.34202 -0.939693 0   
     length 9.16127   
     axis 0 -0 -20   XYZ
    dof rx
    limits (-10.0 170.0)
 end
 begin
     id 9 
     name rfoot
     direction -0.270974 -0.748671 0.605033   
     length 1.74894  
     axis -90 1.13533e-015 -20   XYZ
    dof rx rz
    limits (-45.0 90.0)
           (-20.0 70.0)
  end
  begin
     id 10 
     name rtoes
     direction -1.53557e-011 -4.21759e-011 1   
     length 0.787585   
     axis -90 1.13533e-015 -20   XYZ
    dof rx
    limits (-90.0 20.0)
  end
  begin
     id 11 
     name lowerback
     direction -0.0140249 0.999561 0.0260968   
     length 2.16963   
     axis 0 -0 0   XYZ
    dof rx ry rz
    limits (-20.0 45.0)
           (-30.0 30.0)
           (-30.0 30.0)
  end
  begin
     id 12 
     name upperback
     direction 0.00860018 0.999959 -0.002711   
     length 2.1726   
     axis 0 -0 0   XYZ
    dof rx ry rz
    limits (-20.0 45.0)
           (-30.0 30.0)
           (-30.0 30.0)
  end
  begin
     id 13 
     name thorax
     direction 0.015211 0.999782 -0.0143191   
     length 2.17061   
     axis 0 -0 0   XYZ
    dof rx ry rz
    limits (-20.0 45.0)
           (-30.0 30.0)
           (-30.0 30.0)
  end
  begin
     id 14 
     name lowerneck
     direction -0.0140143 0.999447 0.030145   
     length 2.26749   
     axis 0 -0 0   XYZ
    dof rx ry rz
    limits (-20.0 45.0)
           (-30.0 30.0)
           (-30.0 30.0)
  end
  begin
     id 15 
     name upperneck
     direction 0.118062 0.961438 -0.248392   
     length 2.22728   
     axis 0 -0 0   XYZ
    dof rx ry rz
    limits (-20.0 45.0)
           (-30.0 30.0)
           (-30.0 30.0)
  end
  begin
     id 16
     name head
     direction 0.0431885 0.9954 -0.085514  
     length 2.28786  
     axis 0 -0 0   XYZ
    dof rx ry rz
    limits (-20.0 45.0)
           (-30.0 30.0)
           (-30.0 30.0)
  end
  begin
     id 17 
     name lclavicle
     direction 0.912126 0.409548 0.0172323  
     length 4.31571  
     axis 0 -0 0   XYZ
    dof ry rz
    limits (-20.0 10.0)
           (0.0 20.0)
  end
  begin
     id 18 
     name lhumerus
     direction 1 -4.48977e-011 1.93091e-027   
     length 5.13658   
     axis 180 -30 -90   XYZ
    dof rx ry rz
    limits (-60.0 90.0)
           (-90.0 90.0)
           (-90.0 90.0)
  end
  begin
     id 19
     name lradius
     direction 1 -4.48916e-011 6.84018e-027   
     length 3.22473   
     axis 180 -30 -90   XYZ
    dof rx
    limits (-10.0 170.0)
  end
  begin
     id 20
     name lwrist
     direction 1 -4.48987e-011 7.01981e-027   
     length 1.61236   
     axis -4.37994e-015 90 90   XYZ
    dof ry
    limits (-180.0 0.0)
 end
  begin
     id 21 
     name lhand
     direction 1 -4.49037e-011 1.40335e-026   
     length 0.936406   
     axis -8.96029e-015 90 90   XYZ
    dof rx rz
    limits (-90.0 90.0)
           (-45.0 45.0)
  end
  begin
     id 22 
     name lfingers
     direction 1 -4.48886e-011 2.8104e-026   
     length 0.754955   
     axis -1.79203e-014 90 90   XYZ
    dof rx
    limits (0.0 90.0)
  end
  begin
     id 23
     name lthumb
     direction 0.707107 -6.34937e-011 0.707107   
     length 1.08397   
     axis -90 45 -4.48555e-014   XYZ
    dof rx rz
    limits (-45.0 45.0)
           (-45.0 45.0)
  end
  begin
     id 24 
     name rclavicle
     direction -0.947962 0.317997 0.0156638   
     length 4.86918  
     axis 0 -0 0   XYZ 
    dof ry rz
    limits (-10.0 20.0)
           (-20.0 0.0)
  end
  begin
     id 25 
     name rhumerus
     direction -1 -4.48951e-011 2.80534e-018  
     length 5.60911   
     axis 180 30 90   XYZ
    dof rx ry rz
    limits (-90.0 60.0)
           (-90.0 90.0)
           (-90.0 90.0)
  end
  begin
     id 26 
     name rradius
     direction -1 -4.4898e-011 2.11315e-027   
     length 3.38704   
     axis 180 30 90   XYZ
    dof rx
    limits (-10.0 170.0)
  end
  begin
     id 27 
     name rwrist
     direction -1 -4.48933e-011 7.02314e-027   
     length 1.69352   
     axis -4.37994e-015 -90 -90   XYZ
    dof ry
    limits (-180.0 0.0)
  end
  begin
     id 28
     name rhand
     direction -1 -4.48937e-011 1.40458e-026   
     length 0.755878   
     axis -8.96029e-015 -90 -90   XYZ
    dof rx rz
    limits (-90.0 90.0)
           (-45.0 45.0)
  end
  begin
     id 29
     name rfingers
     direction -1 -4.4901e-011 2.80737e-026   
     length 0.609409   
     axis -1.79203e-014 -90 -90   XYZ
    dof rx
    limits (0.0 90.0)
  end
  begin
     id 30
     name rthumb
     direction -0.707107 -6.34968e-011 0.707107   
     length 0.874992   
     axis -90 -45 4.48555e-014   XYZ
    dof rx rz
    limits (-45.0 45.0)
           (-45.0 45.0)
  end
:hierarchy
  begin
    root lhipjoint rhipjoint lowerback
    lhipjoint lfemur
    lfemur ltibia
    ltibia lfoot
    lfoot ltoes
    rhipjoint rfemur
    rfemur rtibia
    rtibia rfoot
    rfoot rtoes
    lowerback upperback
    upperback thorax
    thorax lowerneck lclavicle rclavicle
    lowerneck upperneck
    upperneck head
    lclavicle lhumerus
    lhumerus lradius
    lradius lwrist
    lwrist lhand lthumb
    lhand lfingers
    rclavicle rhumerus
    rhumerus rradius
    rradius rwrist
    rwrist rhand rthumb
    rhand rfingers
  end

#!OML:ASF C:\ViconDB\ViconDB\414\Spring2016\041811\Spring2016.ASF
:FULLY-SPECIFIED
:DEGREES
122
root 9.37494 19.0824 -11.1165 1.80656 -23.6069 360.608
lowerback -0.341002 -5.5102 -4.67787
upperback 0.0582602 -7.33399 1.22858
thorax 0.995835 -3.69657 3.72638
lowerneck -17.2165 -3.9556 -14.79
upperneck 27.7675 -6.68776 17.0027
head 13.3008 -2.54638 8.29283
rclavicle -1.8833e-013 1.49089e-015
rhumerus -43.1811 -19.1296 6.42262
rradius 33.7926
rwrist 33.6009
rhand -32.5939 -13.9229
rfingers 7.12502
rthumb -5.82213 -43.8229
lclavicle -1.8833e-013 1.49089e-015
lhumerus -19.7127 -7.78157 10.7054
lradius 36.7487
lwrist -17.2174
lhand -30.6133 16.4775
lfingers 7.12502
lthumb -3.90974 46.4214
rfemur 146.816 16.88 181.021
rtibia 43.4214
rfoot 3.08475 -73.8799
rtoes -13.4548
lfemur -8.18428 9.25994 -11.4417
ltibia 39.7692
lfoot -3.12775 -6.76905
ltoes -24.0142
123
root 9.30558 19.0762 -11.1746 2.16597 -26.3939 360.332
lowerback -0.620739 -5.41924 -4.79699
upperback 0.0187919 -7.20053 1.35064
thorax 1.12838 -3.63364 3.89404
lowerneck -17.3828 -3.95567 -15.0189
upperneck 27.9581 -6.72729 17.2771
head 13.4484 -2.56337 8.47125
rclavicle -1.09807e-013 6.75868e-015
rhumerus -43.0998 -19.393 6.24406
rradius 33.5337
rwrist 34.577
rhand -32.535 -13.0558
rfingers 7.12502
rthumb -5.7653 -42.9574
lclavicle -1.09807e-013 6.75868e-015
lhumerus -19.9082 -8.09865 11.1142
lradius 36.076
lwrist -18.9557
lhand -30.6725 15.8939
lfingers 7.12502
lthumb -3.96689 45.8367
rfemur 147.088 17.8614 181.768
rtibia 42.597
rfoot 4.15289 -74.2118
rtoes -9.04069
lfemur -9.12047 9.26432 -10.1443
ltibia 41.2513
lfoot -0.483377 -9.85992
ltoes -20.9103
124
root 9.22899 19.0617 -11.2161 2.56226 -29.184 359.988
lowerback -1.06795 -5.32363 -4.80532
upperback 0.025891 -7.05057 1.30122
thorax 1.36446 -3.56373 3.80836
lowerneck -17.4685 -3.91942 -14.6502
upperneck 28.1445 -6.79786 17.169
head 13.5408 -2.57435 8.35713
rclavicle -8.28567e-015 1.52816e-015
rhumerus -43.1237 -19.9068 6.11287
rradius 33.2255
rwrist 35.6838
rhand -32.2808 -13.2529
rfingers 7.12502
rthumb -5.51986 -43.161
lclavicle -8.28567e-015 1.52816e-015
lhumerus -20.0155 -9.06302 10.984
lradius 35.8939
lwrist -19.287
lhand -30.3192 15.9795
lfingers 7.12502
lthumb -3.62575 45.9284
rfemur 147.477 18.9411 182.407
rtibia 41.6343
rfoot 1.47091 -74.4585
rtoes -6.59407
lfemur -9.73586 8.91533 -8.79004
ltibia 42.4901
lfoot 0.956803 -12.1846
ltoes -16.0717
125
root 9.16222 19.0468 -11.2596 2.90958 -32.0276 359.646
lowerback -1.33096 -5.22057 -4.87239
upperback 0.0762707 -6.8988 1.31899
thorax 1.55787 -3.49392 3.84122
lowerneck -17.6721 -3.85405 -14.6474
upperneck 28.1494 -6.79578 17.4747
head 13.6025 -2.53913 8.49681
rclavicle 2.58265e-014 8.89561e-015
rhumerus -42.8736 -20.1213 5.87711
rradius 33.1638
rwrist 35.2993
rhand -31.9936 -13.5168
rfingers 7.12502
rthumb -5.24256 -43.4319
lclavicle 2.58265e-014 8.89561e-015
lhumerus -20.1137 -9.39241 10.764
lradius 35.5871
lwrist -19.2778
lhand -30.0577 15.225
lfingers 7.12502
lthumb -3.3732 45.178
rfemur 148.033 19.6243 182.929
rtibia 40.5624
rfoot -0.230872 -73.9725
rtoes -5.78523
lfemur -10.0023 8.36652 -7.49829
ltibia 43.3973
lfoot 1.04271 -13.7263
ltoes -16.1125
126
root 9.091 19.0208 -11.3078 3.39317 -34.8359 359.327
lowerback -1.61071 -5.13368 -5.06661
upperback -0.0252282 -6.76715 1.32963
thorax 1.61945 -3.42889 3.94395
lowerneck -17.4377 -3.80913 -14.599
upperneck 28.0418 -6.84937 17.6629
head 13.5232 -2.55404 8.54732
rclavicle -1.06707e-013 9.0447e-015
rhumerus -42.56 -20.0795 5.74537
rradius 32.9863
rwrist 34.9329
rhand -31.665 -13.7308
rfingers 7.12502
rthumb -4.92526 -43.6535
lclavicle -1.06707e-013 9.0447e-015
lhumerus -20.2336 -10.1293 10.4143
lradius 35.5871
lwrist -18.3369
lhand -29.7267 15.4152
lfingers 7.12502
lthumb -3.0535 45.373
rfemur 148.904 20.3917 183.276
rtibia 39.4356
rfoot -2.91476 -73.1806
rtoes -6.23376
lfemur -10.1151 7.69404 -6.25353
ltibia 43.8679
lfoot 0.478718 -14.2777
ltoes -14.5645
127
root 9.02274 18.9965 -11.3535 3.82171 -37.7517 359.083
lowerback -1.90443 -4.91386 -5.21515
upperback -0.0752057 -6.45335 1.16015
thorax 1.6948 -3.27229 3.84475
lowerneck -17.1082 -3.7944 -14.5093
upperneck 27.7421 -7.02876 18.1011
head 13.3825 -2.5958 8.66201
rclavicle -6.41329e-014 1.45113e-014
rhumerus -42.676 -20.3119 6.06882
rradius 32.7674
rwrist 35.2839
rhand -31.6227 -13.8206
rfingers 7.12502
rthumb -4.88441 -43.7443
lclavicle -6.41329e-014 1.45113e-014
lhumerus -19.903 -10.6092 9.73491
lradius 35.4484
lwrist -17.7473
lhand -29.5631 15.6822
lfingers 7.12502
lthumb -2.89549 45.6423
rfemur 150.069 20.6395 183.543
rtibia 38.3749
rfoot -4.04653 -70.7119
rtoes -5.38971
lfemur -9.83125 6.78753 -5.17807
ltibia 43.8355
lfoot -0.816282 -12.5223
ltoes -13.0227
128
root 8.95129 18.9951 -11.3857 4.26205 -40.6682 358.823
lowerback -2.08711 -4.74502 -5.3343
upperback -0.158784 -6.21432 0.996913
thorax 1.67927 -3.15017 3.74497
lowerneck -17.1832 -3.75661 -14.2971
upperneck 27.8425 -7.15549 18.3379
head 13.474 -2.61275 8.7161
rclavicle -1.3085e-013 1.11319e-014
rhumerus -42.6277 -20.0312 6.12469
rradius 32.7783
rwrist 34.9121
rhand -31.5236 -13.8434
rfingers 7.12502
rthumb -4.78875 -43.7693
lclavicle -1.3085e-013 1.11319e-014
lhumerus -19.8621 -10.8236 8.82342
lradius 35.3027
lwrist -17.7906
lhand -29.4782 15.8828
lfingers 7.12502
lthumb -2.81353 45.844
rfemur 151.334 21.4025 183.884
rtibia 37.549
rfoot -10.2117 -68.1839
rtoes -2.9324
lfemur -9.09173 5.70922 -4.21761
ltibia 43.2007
lfoot -2.54159 -9.63867
ltoes -12.0469
129
root 8.88173 18.9895 -11.4198 4.58277 -43.6791 358.806
lowerback -2.18948 -4.62691 -5.82204
upperback -0.325137 -6.04348 1.02233
thorax 1.59958 -3.06279 4.04938
lowerneck -16.9068 -3.78025 -14.5234
upperneck 27.5677 -7.17201 18.4616
head 13.3159 -2.64811 8.77999
rclavicle 1.5417e-013 -3.97569e-016
rhumerus -42.1232 -20.5158 6.8145
rradius 32.5841
rwrist 35.4752
rhand -31.5384 -13.8126
rfingers 7.12502
rthumb -4.80303 -43.7381
lclavicle 1.5417e-013 -3.97569e-016
lhumerus -20.1682 -10.9623 8.22668
lradius 35.1898
lwrist -17.5568
lhand -29.5845 16.2096
lfingers 7.12502
lthumb -2.91615 46.1694
rfemur 152.508 22.0847 184.033
rtibia 36.9997
rfoot -15.895 -66.5916
rtoes -2.40618
lfemur -8.05393 4.8596 -3.52048
ltibia 42.0131
lfoot -4.28633 -6.41169
ltoes -10.6522
130
root 8.81733 18.977 -11.4591 4.58957 -46.7883 359.105
lowerback -2.13558 -4.46508 -6.43822
upperback -0.389451 -5.81603 0.836632
thorax 1.51836 -2.94806 4.21956
lowerneck -16.8732 -3.82386 -14.5365
upperneck 27.2382 -7.25441 18.6161
head 13.1991 -2.67476 8.80461
rclavicle 3.4601e-014 -1.47101e-014
rhumerus -41.7194 -19.6691 6.61945
rradius 32.8163
rwrist 34.4944
rhand -31.1541 -13.9123
rfingers 7.12502
rthumb -4.43195 -43.846
lclavicle 3.4601e-014 -1.47101e-014
lhumerus -20.1622 -10.5796 7.31525
lradius 34.9249
lwrist -17.0854
lhand -29.7563 16.6153
lfingers 7.12502
lthumb -3.0821 46.5727
rfemur 153.499 22.6158 183.991
rtibia 36.7621
rfoot -21.3064 -65.5459
rtoes -0.923838
lfemur -6.68372 3.97318 -3.16282
ltibia 40.3572
lfoot -6.00153 -2.80013
ltoes -9.70392
131
root 8.75873 18.9612 -11.5054 4.46349 -49.8876 359.282
lowerback -1.72767 -4.29543 -6.97542
upperback -0.476651 -5.60996 0.63541
thorax 1.20535 -2.83482 4.35851
lowerneck -16.7425 -3.79776 -14.3808
upperneck 26.958 -7.29169 18.7155
head 13.0612 -2.67559 8.78196
rclavicle 1.11667e-013 1.74931e-014
rhumerus -41.3881 -19.2196 6.58055
rradius 33.0756
rwrist 34.1121
rhand -30.7169 -14.5675
rfingers 7.12502
rthumb -4.0098 -44.5095
lclavicle 1.11667e-013 1.74931e-014
lhumerus -20.3326 -10.1988 6.30826
lradius 34.9353
lwrist -16.8523
lhand -29.7818 17.2035
lfingers 7.12502
lthumb -3.10671 47.1606
rfemur 154.279 22.3589 184.046
rtibia 36.7625
rfoot -25.4739 -64.7977
rtoes 0.357318
lfemur -5.00871 3.02317 -2.78416
ltibia 38.321
lfoot -7.33492 0.6537
ltoes -9.35905
